<mxfile host="app.diagrams.net" agent="Mozilla/5.0 (X11; Linux x86_64) AppleWebKit/537.36 (KHTML, like Gecko) Chrome/132.0.0.0 Safari/537.36" version="28.0.4">
  <diagram name="Page-1" id="9QlPkekAZCgTwEwsu_5-">
    <mxGraphModel dx="2253" dy="759" grid="1" gridSize="10" guides="1" tooltips="1" connect="1" arrows="1" fold="1" page="1" pageScale="1" pageWidth="827" pageHeight="1169" math="0" shadow="0">
      <root>
        <mxCell id="0" />
        <mxCell id="1" parent="0" />
        <mxCell id="nu_-jVytRxxYzVt29CwJ-1" value="Client" style="ellipse;shape=cloud;whiteSpace=wrap;html=1;fillColor=#1ba1e2;fontColor=#ffffff;strokeColor=#006EAF;" parent="1" vertex="1">
          <mxGeometry y="310" width="120" height="80" as="geometry" />
        </mxCell>
        <mxCell id="nu_-jVytRxxYzVt29CwJ-2" value="https://&amp;lt;IP&amp;gt;:80/index.html" style="text;html=1;align=center;verticalAlign=middle;whiteSpace=wrap;rounded=0;" parent="1" vertex="1">
          <mxGeometry x="40" y="280" width="60" height="30" as="geometry" />
        </mxCell>
        <mxCell id="nu_-jVytRxxYzVt29CwJ-3" value="" style="rounded=0;whiteSpace=wrap;html=1;align=left;fillColor=#dae8fc;strokeColor=#6c8ebf;" parent="1" vertex="1">
          <mxGeometry x="370" y="20" width="290" height="570" as="geometry" />
        </mxCell>
        <mxCell id="nu_-jVytRxxYzVt29CwJ-4" value="VPC 10.0.0.0/16" style="text;html=1;align=center;verticalAlign=middle;whiteSpace=wrap;rounded=0;" parent="1" vertex="1">
          <mxGeometry x="380" y="30" width="60" height="30" as="geometry" />
        </mxCell>
        <mxCell id="nu_-jVytRxxYzVt29CwJ-5" value="IGW" style="whiteSpace=wrap;html=1;aspect=fixed;fillColor=#e1d5e7;strokeColor=#9673a6;" parent="1" vertex="1">
          <mxGeometry x="340" y="250" width="40" height="40" as="geometry" />
        </mxCell>
        <mxCell id="nu_-jVytRxxYzVt29CwJ-6" value="" style="rounded=0;whiteSpace=wrap;html=1;fillColor=#d5e8d4;strokeColor=#82b366;" parent="1" vertex="1">
          <mxGeometry x="425" y="90" width="185" height="180" as="geometry" />
        </mxCell>
        <mxCell id="nu_-jVytRxxYzVt29CwJ-7" value="" style="rounded=0;whiteSpace=wrap;html=1;fillColor=#d5e8d4;strokeColor=#82b366;" parent="1" vertex="1">
          <mxGeometry x="425" y="330" width="185" height="190" as="geometry" />
        </mxCell>
        <mxCell id="nu_-jVytRxxYzVt29CwJ-9" value="RDS" style="shape=cylinder3;whiteSpace=wrap;html=1;boundedLbl=1;backgroundOutline=1;size=15;fillColor=#fff2cc;strokeColor=#d6b656;" parent="1" vertex="1">
          <mxGeometry x="470" y="370" width="90" height="130" as="geometry" />
        </mxCell>
        <mxCell id="nu_-jVytRxxYzVt29CwJ-10" value="EC2 Instance" style="swimlane;whiteSpace=wrap;html=1;fillColor=#fff2cc;strokeColor=#d6b656;" parent="1" vertex="1">
          <mxGeometry x="440" y="120" width="150" height="120" as="geometry" />
        </mxCell>
        <mxCell id="nu_-jVytRxxYzVt29CwJ-36" value="Nodejs that contain index.html" style="text;html=1;align=center;verticalAlign=middle;whiteSpace=wrap;rounded=0;" parent="nu_-jVytRxxYzVt29CwJ-10" vertex="1">
          <mxGeometry x="40" y="60" width="60" height="30" as="geometry" />
        </mxCell>
        <mxCell id="nu_-jVytRxxYzVt29CwJ-16" value="" style="endArrow=none;dashed=1;html=1;rounded=0;entryX=0;entryY=0.25;entryDx=0;entryDy=0;exitX=0.75;exitY=0;exitDx=0;exitDy=0;" parent="1" target="nu_-jVytRxxYzVt29CwJ-6" edge="1">
          <mxGeometry width="50" height="50" relative="1" as="geometry">
            <mxPoint x="380" y="275" as="sourcePoint" />
            <mxPoint x="440" y="180" as="targetPoint" />
          </mxGeometry>
        </mxCell>
        <mxCell id="nu_-jVytRxxYzVt29CwJ-19" style="edgeStyle=orthogonalEdgeStyle;rounded=0;orthogonalLoop=1;jettySize=auto;html=1;exitX=0.5;exitY=0;exitDx=0;exitDy=0;entryX=0.417;entryY=0.05;entryDx=0;entryDy=0;entryPerimeter=0;" parent="1" source="nu_-jVytRxxYzVt29CwJ-6" target="nu_-jVytRxxYzVt29CwJ-6" edge="1">
          <mxGeometry relative="1" as="geometry" />
        </mxCell>
        <mxCell id="nu_-jVytRxxYzVt29CwJ-21" value="Private Subnet" style="text;html=1;align=center;verticalAlign=middle;whiteSpace=wrap;rounded=0;" parent="1" vertex="1">
          <mxGeometry x="425" y="330" width="60" height="30" as="geometry" />
        </mxCell>
        <mxCell id="nu_-jVytRxxYzVt29CwJ-22" value="Public Subnet" style="text;html=1;align=center;verticalAlign=middle;whiteSpace=wrap;rounded=0;" parent="1" vertex="1">
          <mxGeometry x="425" y="90" width="60" height="30" as="geometry" />
        </mxCell>
        <mxCell id="nu_-jVytRxxYzVt29CwJ-25" value="" style="endArrow=none;dashed=1;html=1;rounded=0;exitX=0.875;exitY=0.5;exitDx=0;exitDy=0;exitPerimeter=0;" parent="1" source="nu_-jVytRxxYzVt29CwJ-1" target="nu_-jVytRxxYzVt29CwJ-37" edge="1">
          <mxGeometry width="50" height="50" relative="1" as="geometry">
            <mxPoint x="130" y="340" as="sourcePoint" />
            <mxPoint x="180" y="290" as="targetPoint" />
          </mxGeometry>
        </mxCell>
        <mxCell id="nu_-jVytRxxYzVt29CwJ-26" value="" style="shape=actor;whiteSpace=wrap;html=1;fillColor=#dae8fc;gradientColor=#7ea6e0;strokeColor=#6c8ebf;" parent="1" vertex="1">
          <mxGeometry x="40" y="390" width="40" height="60" as="geometry" />
        </mxCell>
        <mxCell id="nu_-jVytRxxYzVt29CwJ-27" value="" style="shape=flexArrow;endArrow=classic;html=1;rounded=0;entryX=0.368;entryY=0.994;entryDx=0;entryDy=0;entryPerimeter=0;exitX=0.368;exitY=0;exitDx=0;exitDy=0;exitPerimeter=0;" parent="1" source="nu_-jVytRxxYzVt29CwJ-7" target="nu_-jVytRxxYzVt29CwJ-6" edge="1">
          <mxGeometry width="50" height="50" relative="1" as="geometry">
            <mxPoint x="480" y="325" as="sourcePoint" />
            <mxPoint x="510" y="290" as="targetPoint" />
          </mxGeometry>
        </mxCell>
        <mxCell id="nu_-jVytRxxYzVt29CwJ-29" value="" style="shape=flexArrow;endArrow=classic;html=1;rounded=0;exitX=0.665;exitY=1.006;exitDx=0;exitDy=0;exitPerimeter=0;entryX=0.665;entryY=0.021;entryDx=0;entryDy=0;entryPerimeter=0;" parent="1" source="nu_-jVytRxxYzVt29CwJ-6" target="nu_-jVytRxxYzVt29CwJ-7" edge="1">
          <mxGeometry width="50" height="50" relative="1" as="geometry">
            <mxPoint x="550" y="275" as="sourcePoint" />
            <mxPoint x="550" y="324" as="targetPoint" />
          </mxGeometry>
        </mxCell>
        <mxCell id="nu_-jVytRxxYzVt29CwJ-30" value="List Item" style="text;strokeColor=none;fillColor=none;align=left;verticalAlign=top;spacingLeft=4;spacingRight=4;overflow=hidden;rotatable=0;points=[[0,0.5],[1,0.5]];portConstraint=eastwest;whiteSpace=wrap;html=1;" parent="1" vertex="1">
          <mxGeometry x="550" y="270" width="60" height="26" as="geometry" />
        </mxCell>
        <mxCell id="nu_-jVytRxxYzVt29CwJ-31" value="List Item" style="text;strokeColor=none;fillColor=none;align=left;verticalAlign=top;spacingLeft=4;spacingRight=4;overflow=hidden;rotatable=0;points=[[0,0.5],[1,0.5]];portConstraint=eastwest;whiteSpace=wrap;html=1;" parent="1" vertex="1">
          <mxGeometry x="550" y="270" width="60" height="26" as="geometry" />
        </mxCell>
        <mxCell id="nu_-jVytRxxYzVt29CwJ-32" value="Vertical Container" style="swimlane;whiteSpace=wrap;html=1;fillColor=#a0522d;fontColor=#ffffff;strokeColor=#6D1F00;" parent="1" vertex="1">
          <mxGeometry x="-210" y="270" width="200" height="200" as="geometry" />
        </mxCell>
        <mxCell id="nu_-jVytRxxYzVt29CwJ-33" value="Username" style="rounded=0;whiteSpace=wrap;html=1;" parent="nu_-jVytRxxYzVt29CwJ-32" vertex="1">
          <mxGeometry x="20" y="60" width="160" height="20" as="geometry" />
        </mxCell>
        <mxCell id="nu_-jVytRxxYzVt29CwJ-34" value="Password" style="rounded=0;whiteSpace=wrap;html=1;" parent="nu_-jVytRxxYzVt29CwJ-32" vertex="1">
          <mxGeometry x="20" y="100" width="160" height="20" as="geometry" />
        </mxCell>
        <mxCell id="nu_-jVytRxxYzVt29CwJ-35" value="Submit" style="rounded=0;whiteSpace=wrap;html=1;fillColor=#d5e8d4;strokeColor=#82b366;" parent="nu_-jVytRxxYzVt29CwJ-32" vertex="1">
          <mxGeometry x="20" y="140" width="160" height="20" as="geometry" />
        </mxCell>
        <mxCell id="nu_-jVytRxxYzVt29CwJ-37" value="Internet" style="ellipse;shape=cloud;whiteSpace=wrap;html=1;fillColor=#1ba1e2;fontColor=#ffffff;strokeColor=#006EAF;" parent="1" vertex="1">
          <mxGeometry x="140" y="140" width="120" height="80" as="geometry" />
        </mxCell>
        <mxCell id="nu_-jVytRxxYzVt29CwJ-38" value="" style="endArrow=none;dashed=1;html=1;rounded=0;exitX=0.875;exitY=0.5;exitDx=0;exitDy=0;exitPerimeter=0;entryX=0;entryY=0.25;entryDx=0;entryDy=0;" parent="1" target="nu_-jVytRxxYzVt29CwJ-5" edge="1">
          <mxGeometry width="50" height="50" relative="1" as="geometry">
            <mxPoint x="250" y="183" as="sourcePoint" />
            <mxPoint x="324" y="50" as="targetPoint" />
          </mxGeometry>
        </mxCell>
      </root>
    </mxGraphModel>
  </diagram>
</mxfile>
